<?xml version="1.0" encoding="utf-8"?>
<!-- Generator: Adobe Illustrator 15.0.0, SVG Export Plug-In . SVG Version: 6.00 Build 0)  -->
<!DOCTYPE svg PUBLIC "-//W3C//DTD SVG 1.1//EN" "http://www.w3.org/Graphics/SVG/1.1/DTD/svg11.dtd">
<svg version="1.1" id="Layer_1" xmlns="http://www.w3.org/2000/svg" xmlns:xlink="http://www.w3.org/1999/xlink" x="0px" y="0px"
	 width="430px" height="270px" viewBox="0 0 434 273" enable-background="new 0 0 434 273" xml:space="preserve">
<g>
	<defs>
		<rect id="SVGID_1_" width="632" height="273"/>
	</defs>
	<clipPath id="SVGID_2_">
		<use xlink:href="#SVGID_1_"  overflow="visible"/>
	</clipPath>
</g>
<g>
	<defs>
		<rect id="SVGID_3_" width="632" height="273"/>
	</defs>
	<clipPath id="SVGID_4_">
		<use xlink:href="#SVGID_3_"  overflow="visible"/>
	</clipPath>
	<path clip-path="url(#SVGID_4_)" fill-rule="evenodd" clip-rule="evenodd" fill="#4971B8" d="M396.311,77l-12.84,151.25
		l-57.811,16.48L325.43,77H396.311z M412.21,62.92c0,0-10.51,118.91-16.239,176.439C373.04,246.08,327.189,259.5,325.76,259.5
		c-0.95,0-46.8-13.42-70.21-20.141C250.3,181.83,239.79,62.92,239.79,62.92H412.21z"/>
	<polygon clip-path="url(#SVGID_4_)" fill-rule="evenodd" clip-rule="evenodd" fill="#5690CC" points="396.45,76.83 383.65,228.91 
		325.19,245.21 325.19,76.83 	"/>
	<polygon clip-path="url(#SVGID_4_)" fill-rule="evenodd" clip-rule="evenodd" fill="#FFFFFF" points="380.02,99.33 377.721,119.72 
		330.3,142.93 376.01,142.93 370.459,209.82 324.851,222.12 281.459,209.46 278.371,175.641 300.549,175.76 301.52,192.73 
		324.851,199.109 350.609,192.529 352.749,164.33 277.439,164.45 275.759,143.92 326.76,121.1 273.701,120.32 272.259,99.33 	"/>
	<path clip-path="url(#SVGID_4_)" fill-rule="evenodd" clip-rule="evenodd" fill="#010101" d="M377.439,14.5v11.4h-8.83l8.591,11.88
		v9.5h-25.761V36.83h8.351c0,0,0.239-0.24,0.239-0.48l-9.299-13.06V14.5H377.439z M339.76,14.5v11.4h-8.58l8.58,11.64v9.74h-25.75
		V36.59h8.58l-9.3-13.54V14.5H339.76z M301.85,14.5v10.93h-15.5v11.4h15.5v10.45h-26.71V14.5H301.85z"/>
</g>
<g>
	<defs>
		<rect id="SVGID_5_" width="632" height="273"/>
	</defs>
	<clipPath id="SVGID_6_">
		<use xlink:href="#SVGID_5_"  overflow="visible"/>
	</clipPath>
	<path clip-path="url(#SVGID_6_)" fill-rule="evenodd" clip-rule="evenodd" fill="#E34F26" d="M175.51,77l-12.83,151.25
		l-57.81,16.48L104.63,77H175.51z M191.41,62.92c0,0-10.5,118.91-16.23,176.439c-22.93,6.721-68.78,20.141-70.21,20.141
		c-0.96,0-46.81-13.42-70.21-20.141C29.51,181.83,19,62.92,19,62.92H191.41z"/>
	<polygon clip-path="url(#SVGID_6_)" fill-rule="evenodd" clip-rule="evenodd" fill="#F1662A" points="175.65,76.83 162.85,228.91 
		104.39,245.21 104.39,76.83 	"/>
	<path clip-path="url(#SVGID_6_)" fill-rule="evenodd" clip-rule="evenodd" fill="#FFFFFF" d="M158.94,99.36l-1.91,20.62H74.4
		l2.15,22.77l78.57,0.24l-5.74,66.65l-44.41,11.979l-43.94-11.979l-2.87-33.561h21.02l1.43,16.78l24.36,6.71
		c0,0,16.24-4.32,24.36-6.71c0.47,0,2.86-28.771,2.86-28.771H56.73l-5.25-64.73H158.94z"/>
	<path clip-path="url(#SVGID_6_)" fill-rule="evenodd" clip-rule="evenodd" fill="#010101" d="M160.37,14.5v22.05h15.28V47.1h-25.79
		V14.5H160.37z M118.34,14.5c2.39,3.84,4.3,7.67,7.16,11.51l7.17-11.51h10.98v32.6h-10.5V30.8c-2.87,3.84-5.26,7.67-7.65,11.51
		l-8.11-11.51v16.3h-10.03V14.5H118.34z M101.62,14.5v10.55h-9.55V47.1h-10.5V25.05h-9.56V14.5H101.62z M45.27,14.5v11.03h10.98
		V14.5h10.03v32.6H56.25V36.08H45.27V47.1H35.24V14.5H45.27z"/>
</g>
</svg>
