<?xml version="1.0" encoding="utf-8"?>
<!-- Generator: Adobe Illustrator 15.0.0, SVG Export Plug-In . SVG Version: 6.00 Build 0)  -->
<!DOCTYPE svg PUBLIC "-//W3C//DTD SVG 1.1//EN" "http://www.w3.org/Graphics/SVG/1.1/DTD/svg11.dtd">
<svg version="1.1" id="Layer_1" xmlns="http://www.w3.org/2000/svg" xmlns:xlink="http://www.w3.org/1999/xlink" x="0px" y="0px"
	 width="430px" height="270px" viewBox="341.291 67.102 291.794 394.48"
	 enable-background="new 341.291 67.102 291.794 394.48" xml:space="preserve">
<g>
	<polygon fill="#E4A227" points="385.909,414.281 363.275,160.424 611.972,160.424 589.315,414.24 487.472,442.475 	"/>
	<polygon fill="#F0BF26" points="487.414,420.579 569.709,397.765 589.072,180.867 487.414,180.867 	"/>
	<g>
		<polygon fill="#151515" points="531.883,104.354 511.239,104.354 532.708,127.648 532.708,138.734 488.492,138.734 
			488.492,125.753 509.955,125.753 488.492,102.461 488.492,91.356 531.883,91.356 		"/>
		<path fill="#020202" d="M480.618,91.377v47.337h-38.079v-15.646h22.251v-31.69h15.826H480.618z"/>
	</g>
	<polygon fill="#EBEBEB" points="487.367,355.897 487.231,355.938 452.556,346.573 450.339,321.742 433.491,321.742 
		419.086,321.742 423.448,370.628 487.223,388.333 487.367,388.291 	"/>
	<polygon fill="#EBEBEB" points="491.561,306.159 491.561,275.026 453.223,275.026 457.718,226.163 491.647,225.259 
		491.561,192.883 429.569,192.883 427.266,215.833 419.949,297.8 419.19,306.159 427.58,306.159 	"/>
	<polygon fill="#FFFFFF" points="491.35,225.303 491.486,225.264 525.491,227.312 528.376,259.457 545.224,259.457 559.631,259.457 
		554.185,199.303 491.494,192.869 491.35,192.909 	"/>
	<polyline fill="#FFFFFF" points="556.421,225.397 553.753,192.883 488.033,192.883 488.033,213.076 488.033,225.316 
		488.033,225.397 556.421,225.397 	"/>
	<polygon fill="#FFFFFF" points="487.259,275.041 487.259,306.174 525.597,306.174 521.983,346.552 487.259,355.926 
		487.259,388.317 551.087,370.628 551.554,365.367 558.871,283.401 559.631,275.041 551.24,275.041 	"/>
	<path fill="#FFFFFF" d="M552.421,224.018"/>
</g>
</svg>
